# xmcd
#
# Track frame offsets:
#	150
#	23279
#	53385
#	78342
#	100419
#	118256
#	128506
#	142532
#	168156
#	194921
#	210819
#	247586
#	266220
#	276912
#	290410
#	310655
#
# Disc length: 4428 seconds
#
# Revision: 0
# Processed by: cddbd v1.5.2PL0 Copyright (c) Steve Scherf et al.
# Submitted via: EasyCDDAExtractor 16.0.6.1
#
DISCID=cc114a10
DTITLE=Σγουρός Δημήτρης - Τα σα εκ των σων-Ανατολική Κρήτη
DYEAR=1999
DGENRE=Κρητική
TTITLE0=Σγουρός Δημήτρης - Επίκληση στη Μούσα
TTITLE1=Σγουρός Δημήτρης - Σκοπός του γάμου
TTITLE2=Σγουρός Δημήτρης - Τραγούδι της βάφτισης [κοντυλιές]
TTITLE3=Σγουρός Δημήτρης - Ερωτόκριτος
TTITLE4=Σγουρός Δημήτρης - Του Λασιθιού το δρόμο
TTITLE5=Σγουρός Δημήτρης - Μεραμπελλιώτικο νερό
TTITLE6=Σγουρός Δημήτρης - Σκοινιώτικες κοντυλιές
TTITLE7=Σγουρός Δημήτρης - Τραγούδι της Σούσας [χανιώτικο συρτό]
TTITLE8=Σγουρός Δημήτρης - Κοντυλιές Κοκκινομανόλη [ανοιχτές]
TTITLE9=Ξυλούρης Γιώργης-Σταυρακάκης Μιχάλης - Σκοπός του Κλήδονα
TTITLE10=Σγουρός Δημήτρης - Εκατόλογα της αγάπης [κοντυλιές]
TTITLE11=Σγουρός Δημήτρης - Σαββατόβραδο [τραγούδι της παρέας]
TTITLE12=Σγουρός Δημήτρης - Πρινιανός χορός
TTITLE13=Σγουρός Δημήτρης - Ζερβόδεξος [αποκριάτικος]
TTITLE14=Σγουρός Δημήτρης - Αγκαλιαστός χορός
TTITLE15=Σγουρός Δημήτρης - Μαλαματένιε μου σταυρέ [κοντυλιές]
EXTD=
EXTT0=
EXTT1=
EXTT2=
EXTT3=
EXTT4=
EXTT5=
EXTT6=
EXTT7=
EXTT8=
EXTT9=
EXTT10=
EXTT11=
EXTT12=
EXTT13=
EXTT14=
EXTT15=
PLAYORDER=
